<svg width="172" height="62" viewBox="0 0 172 62" fill="none" xmlns="http://www.w3.org/2000/svg">
<g clipPath="url(#clip0_13_2)">
<path d="M32.2047 61.5327C32.1921 61.2725 32.1718 61.0467 32.1718 60.8208C32.1687 57.8548 32.1687 54.8889 32.1687 51.9245C32.1687 51.764 32.1343 51.588 32.1875 51.4463C32.2453 51.2889 32.3548 51.102 32.4939 51.0319C32.9286 50.8154 33.6166 51.0272 33.9059 51.4369C35.4085 53.5679 36.9081 55.7005 38.4076 57.833C38.7219 58.2801 39.0221 58.7381 39.3489 59.1758C39.4756 59.344 39.6585 59.4718 39.9431 59.735C39.9978 59.3035 40.0588 59.0434 40.0604 58.7848C40.0697 56.5541 40.0682 54.325 40.0713 52.0958C40.0713 51.912 40.0635 51.7267 40.0823 51.5444C40.112 51.2562 40.1901 50.9961 40.5592 50.9852C40.8985 50.9743 41.0814 51.1472 41.1221 51.5335C41.1346 51.6472 41.1268 51.7625 41.1268 51.8778C41.1268 54.8671 41.1268 57.8548 41.1268 60.8442C41.1268 61.0046 41.1455 61.1744 41.1017 61.3239C41.0689 61.4377 40.9688 61.5716 40.8641 61.6168C40.3809 61.8255 39.6601 61.6293 39.3771 61.2196C37.7556 58.8923 36.1372 56.5619 34.522 54.2315C34.3015 53.9137 34.1139 53.571 33.8746 53.2673C33.7917 53.1629 33.601 53.0944 33.4634 53.1006C33.3915 53.1037 33.2961 53.2953 33.2679 53.4152C33.232 53.5679 33.2507 53.7346 33.2507 53.895C33.2492 56.0556 33.2476 58.2178 33.2445 60.3784C33.2445 60.5388 33.2445 60.7008 33.2429 60.8613C33.2241 61.6822 33.1006 61.771 32.2078 61.5358" fill="white"/>
<path d="M119.093 61.5389C118.097 61.7726 117.995 61.7461 117.532 60.9937C116.79 59.7849 116.078 58.5574 115.326 57.3532C115.181 57.1196 114.94 56.8454 114.699 56.7924C114.308 56.7083 113.87 56.7426 113.475 56.8298C113.334 56.861 113.204 57.1819 113.167 57.3875C113.106 57.7224 113.115 58.0729 113.112 58.4172C113.106 59.2443 113.112 60.0715 113.106 60.8987C113.098 61.7258 112.977 61.8022 112.11 61.5202C112.099 61.3099 112.077 61.0841 112.077 60.8566C112.075 57.8689 112.077 54.8827 112.077 51.8949C112.077 51.7796 112.071 51.6643 112.081 51.5506C112.119 51.1581 112.249 50.9914 112.633 50.9883C113.902 50.9836 115.176 50.9447 116.436 51.049C116.973 51.0942 117.546 51.373 117.99 51.697C119.332 52.6784 119.359 55.1054 117.693 56.174C117.504 56.2955 117.273 56.3563 117.055 56.4264C116.427 56.6258 116.342 56.8034 116.669 57.3548C117.39 58.5745 118.122 59.7864 118.843 61.0046C118.932 61.1557 118.994 61.3239 119.093 61.5358M113.113 53.8109H113.121C113.121 53.9947 113.121 54.1785 113.121 54.3624C113.121 54.568 113.12 54.7752 113.131 54.9808C113.163 55.5385 113.386 55.7488 113.95 55.7752C114.808 55.8157 115.653 55.7332 116.485 55.5244C117.037 55.3858 117.41 55.0119 117.614 54.5135C118.061 53.4184 117.434 52.2859 116.224 52.088C115.434 51.9588 114.618 51.9603 113.814 51.9588C113.315 51.9588 113.142 52.1831 113.118 52.7096C113.101 53.0757 113.115 53.4433 113.115 53.8109" fill="white"/>
<path d="M62.7878 61.5436C61.8043 61.7959 61.6573 61.704 61.354 60.8878C61.1632 60.3737 60.9114 59.883 60.6863 59.3814C60.5471 59.073 60.3063 58.953 59.9701 58.9546C58.4722 58.9608 56.9727 58.9546 55.4747 58.9577C55.0947 58.9577 54.8383 59.0995 54.7038 59.5029C54.5381 59.9998 54.2988 60.4734 54.0799 60.9516C53.7156 61.7554 53.5968 61.8037 52.6304 61.5233C52.7884 61.1012 52.9275 60.6759 53.1042 60.2678C53.9689 58.2754 54.8414 56.2862 55.7155 54.2985C56.1205 53.3794 56.5411 52.4666 56.9398 51.5444C57.079 51.2235 57.2572 51.0116 57.6372 50.9789C58.0422 50.9446 58.2986 51.1129 58.4597 51.4556C58.6457 51.8466 58.824 52.2407 58.9991 52.6364C59.7591 54.3499 60.5205 56.0634 61.2726 57.7801C61.7308 58.8253 62.1764 59.8752 62.6189 60.9283C62.6956 61.1105 62.7253 61.3115 62.7878 61.5451M57.7044 52.585C57.5356 52.8544 57.4026 53.0227 57.3151 53.2127C57.1228 53.6271 56.9523 54.0524 56.7756 54.4729C56.3957 55.3764 56.0063 56.2784 55.642 57.1881C55.4512 57.6632 55.606 57.8984 56.1158 57.9047C57.1744 57.9187 58.2345 57.9202 59.2947 57.9031C59.8669 57.8938 59.9686 57.7037 59.7528 57.1554C59.5855 56.7332 59.4166 56.3111 59.2462 55.8889C58.8772 54.9792 58.516 54.0664 58.1329 53.1613C58.0578 52.9837 57.9014 52.842 57.706 52.5834" fill="white"/>
<path d="M139.83 61.5295C138.959 61.7975 138.743 61.7071 138.424 60.947C138.213 60.4407 138.008 59.9329 137.808 59.4219C137.681 59.101 137.431 58.9702 137.106 58.9624C136.645 58.9515 136.183 58.9484 135.722 58.9484C134.707 58.9484 133.691 58.9624 132.676 58.9484C132.166 58.9421 131.866 59.1431 131.71 59.64C131.567 60.0949 131.33 60.5201 131.161 60.9688C130.887 61.6978 130.564 61.8333 129.705 61.4828C129.937 60.894 130.156 60.2974 130.406 59.7132C130.947 58.453 131.505 57.2021 132.054 55.945C132.678 54.5181 133.284 53.0819 133.935 51.6674C134.057 51.4011 134.315 51.1285 134.577 51.0132C134.987 50.834 135.333 51.0397 135.556 51.5195C136.01 52.4946 136.443 53.4791 136.879 54.462C137.436 55.7176 137.988 56.9762 138.537 58.2349C138.956 59.1992 139.367 60.1665 139.772 61.1354C139.822 61.2554 139.813 61.4003 139.83 61.528M136.785 57.8782C137.028 57.5106 136.893 57.2691 136.785 57.009C136.243 55.7004 135.721 54.3841 135.172 53.0788C135.112 52.937 134.926 52.7563 134.801 52.7563C134.667 52.7563 134.471 52.9261 134.412 53.0679C133.822 54.4574 133.255 55.8562 132.684 57.2535C132.507 57.6881 132.64 57.8922 133.144 57.9C134.135 57.9171 135.126 57.9093 136.118 57.9062C136.346 57.9062 136.573 57.886 136.785 57.8751" fill="white"/>
<path d="M99.6333 55.0852C99.5802 56.3251 99.5411 57.5651 99.4676 58.8035C99.3879 60.151 98.1854 61.7321 96.4936 61.9424C95.5288 62.0623 94.6219 62.0171 93.7494 61.6339C92.7674 61.2009 92.1545 60.4049 91.898 59.3845C91.7495 58.7879 91.6916 58.157 91.6838 57.5417C91.6572 55.6802 91.6713 53.8171 91.6729 51.9556C91.6729 51.7718 91.6635 51.5818 91.7088 51.4073C91.7698 51.1783 91.8996 50.9945 92.1857 50.9883C92.4906 50.982 92.6705 51.1456 92.7361 51.4104C92.7846 51.6067 92.7643 51.8217 92.7643 52.0273C92.7705 54.0508 92.7737 56.0743 92.7831 58.0963C92.7862 58.9079 93.0395 59.6338 93.6274 60.2101C94.392 60.961 95.3036 61.1962 96.3497 60.9345C97.7476 60.5856 98.2573 59.5356 98.4684 58.2645C98.5278 57.9047 98.5091 57.5308 98.5091 57.1632C98.5122 55.4388 98.5091 53.7143 98.5122 51.9899C98.5122 51.8061 98.506 51.6207 98.5294 51.4385C98.5654 51.1565 98.7077 50.9852 99.0298 50.9883C99.3425 50.9914 99.502 51.1503 99.552 51.4291C99.5849 51.6083 99.5786 51.7952 99.5786 51.979C99.5802 53.0133 99.5786 54.0477 99.5786 55.0836C99.5958 55.0836 99.613 55.0836 99.6302 55.0852" fill="white"/>
<path d="M75.5174 61.5077V60.7803C75.5174 58.2069 75.5174 55.635 75.5174 53.0616C75.5174 52.8778 75.5064 52.694 75.5143 52.5102C75.5283 52.1659 75.3485 51.993 75.0248 51.9743C74.6105 51.9509 74.1961 51.951 73.7802 51.9463C73.4112 51.9416 73.0421 51.9494 72.6731 51.94C71.9273 51.9198 71.8366 51.778 72.1149 51.0147C72.3213 51.0038 72.5465 50.9836 72.7716 50.9836C74.9623 50.9805 77.1545 50.9774 79.3452 50.9883C79.5875 50.9883 79.8643 51.0147 80.0629 51.1331C80.4225 51.345 80.374 51.7111 79.9878 51.8497C79.7971 51.9182 79.5828 51.9369 79.378 51.9416C78.8245 51.9541 78.2709 51.9447 77.7174 51.9478C76.6401 51.9525 76.6041 51.9899 76.6041 53.0897C76.6041 55.4777 76.6041 57.8673 76.6041 60.2569C76.6041 60.4641 76.6041 60.6697 76.6025 60.8769C76.5916 61.7009 76.4259 61.8068 75.5189 61.5093" fill="white"/>
<path d="M75.7425 37.9032C75.4095 38.9469 74.8466 39.8955 74.0945 40.6946C73.3408 41.4938 72.437 42.1371 71.4863 42.6839C69.2628 43.9628 66.7376 44.5734 64.181 44.6373C63.5352 44.6529 62.8879 44.6373 62.2437 44.5937C61.7871 44.5625 61.3321 44.4893 60.938 44.2448C60.0858 43.7182 59.9561 42.6247 59.9451 41.715C59.9092 38.788 59.942 35.8594 59.942 32.9324C59.942 29.9976 59.942 27.0628 59.942 24.128V23.4395C62.1436 23.4706 64.3655 23.4395 66.5327 23.8819C67.1832 24.0143 67.8227 24.1903 68.4482 24.4099C68.5545 24.4473 68.6374 24.4068 68.6858 24.3367C68.7202 24.3009 68.7421 24.251 68.7421 24.1872V21.9798C68.7421 21.8381 68.5936 21.7072 68.4497 21.7571C66.2763 22.5188 63.9777 22.6575 61.6933 22.6964C61.11 22.7073 60.5268 22.712 59.9435 22.7213C59.9435 20.6869 59.9357 18.6525 59.9373 16.6165C59.9373 16.0697 59.9389 15.5214 59.9435 14.9746C59.9467 14.4949 59.9342 14.0104 59.9686 13.5306C60.0124 12.92 60.1687 12.2642 60.6065 11.8093C61.0537 11.3435 61.6745 11.2205 62.2953 11.1831C63.296 11.1239 64.2998 11.1099 65.299 11.1706C67.2567 11.289 69.2034 11.7205 70.9656 12.5913C71.7287 12.9683 72.4511 13.4325 73.0406 14.0493C73.3424 14.3656 73.6004 14.7161 73.8146 15.0977C73.9225 15.2909 74.0178 15.4903 74.0992 15.6959C74.1398 15.8002 74.1664 15.8953 74.2665 15.9576C74.3431 16.0074 74.44 16.0339 74.5229 16.0729C74.6996 16.1554 74.9169 16.0183 74.8622 15.8127C74.6574 15.0432 74.4447 14.2768 74.2383 13.5088C74.1382 13.1365 74.0397 12.7626 73.9444 12.3888C73.8537 12.0367 73.7833 11.6753 73.6801 11.3264C73.6144 11.1067 73.5144 10.8871 73.3361 10.7344C73.1469 10.574 72.9077 10.5148 72.6637 10.4946C72.2822 10.4634 71.8913 10.4914 71.5082 10.493C71.0954 10.4946 70.6826 10.4961 70.2682 10.4977C66.9612 10.5086 63.6556 10.5086 60.3485 10.507C58.5191 10.507 56.6896 10.5055 54.8602 10.5055C54.7069 10.5055 54.6006 10.6519 54.6366 10.7968C54.7648 11.3124 54.9321 11.8171 55.0494 12.3358C55.1698 12.867 55.1995 13.4153 55.2511 13.9559C55.359 15.0868 55.4606 16.2193 55.5122 17.3549C55.5638 18.4952 55.556 19.6385 55.5622 20.7788C55.5701 21.9253 55.5748 23.0718 55.5779 24.2168C55.592 28.7825 55.5826 33.3467 55.5466 37.9125C55.5278 40.3099 55.4387 42.7337 54.574 45.0003C54.5318 45.1093 54.6209 45.2635 54.7351 45.2838C55.1932 45.3663 55.6608 45.3367 56.1252 45.3383C56.5849 45.3383 57.043 45.3383 57.5027 45.3383H60.3251C62.1842 45.3383 64.0434 45.3383 65.9026 45.3383C67.7617 45.3383 69.6209 45.3414 71.4801 45.343C72.4214 45.343 73.3627 45.3632 74.304 45.3492C74.5854 45.3445 74.8653 45.2698 75.0233 45.019C75.1906 44.7526 75.2 44.3834 75.2469 44.0828C75.411 43.0593 75.5799 42.0359 75.7488 41.0124C75.9161 39.9999 76.1256 38.9874 76.1944 37.9639C76.2116 37.696 75.816 37.6633 75.7394 37.9032" fill="white"/>
<path d="M131.291 10.5958C131.153 10.5553 131.036 10.5148 130.892 10.5133C130.651 10.5117 130.409 10.5133 130.168 10.5133C129.696 10.5133 129.225 10.5133 128.753 10.5133C127.834 10.5133 126.913 10.5133 125.993 10.5133C124.129 10.5133 122.267 10.5133 120.403 10.5101C118.539 10.5101 116.677 10.5086 114.813 10.5055C113.881 10.5055 112.949 10.5039 112.019 10.5024C111.547 10.5024 111.076 10.5024 110.604 10.5008C110.397 10.5008 110.189 10.5008 109.983 10.5008C109.795 10.5008 109.609 10.5008 109.434 10.5771C109.115 10.7189 109.029 11.0538 108.946 11.3622C108.813 11.8545 108.679 12.3467 108.541 12.8374C108.402 13.339 108.261 13.8422 108.122 14.3438C108.055 14.5837 107.989 14.8235 107.924 15.065C107.853 15.3205 107.827 15.5417 107.817 15.8049C107.811 16.0215 108.154 16.1352 108.249 15.9218C108.713 14.8734 109.433 13.9574 110.393 13.3156C110.843 13.015 111.336 12.8016 111.817 12.5555C112.199 12.3607 112.574 12.1536 112.97 11.9884C114.142 11.4978 115.425 11.4619 116.677 11.3825C118.203 11.2859 119.731 11.2267 121.26 11.1784C122.935 11.1255 124.611 11.0865 126.286 11.0258L126.295 11.0444C125.031 13.2175 123.767 15.389 122.503 17.5605C121.219 19.7678 119.934 21.9752 118.65 24.1825C117.365 26.3914 116.08 28.6003 114.794 30.8107C113.507 33.0227 112.221 35.2347 110.934 37.4467C109.644 39.6619 108.355 41.8785 107.065 44.0952C106.904 44.3725 106.743 44.6498 106.581 44.9271C106.512 45.0455 106.568 45.2402 106.718 45.2651C106.859 45.2885 107 45.3258 107.143 45.3368C107.366 45.3539 107.592 45.3399 107.814 45.3399C108.274 45.3399 108.734 45.3399 109.193 45.3399C110.136 45.3399 111.079 45.3399 112.022 45.3399C113.884 45.3399 115.747 45.3399 117.609 45.3399C119.495 45.3399 121.38 45.3399 123.266 45.343C124.197 45.343 125.128 45.343 126.06 45.3461C126.533 45.3461 127.003 45.3461 127.474 45.3477C127.826 45.3477 128.249 45.4146 128.584 45.2807C128.925 45.1451 129.033 44.8243 129.117 44.4971C129.247 43.9924 129.38 43.4877 129.514 42.9846C129.649 42.4814 129.785 41.9782 129.921 41.4751C129.985 41.2336 130.051 40.9937 130.113 40.7523C130.182 40.4953 130.21 40.2632 130.223 39.9983C130.232 39.7818 129.885 39.6697 129.791 39.8815C129.369 40.8504 128.729 41.7041 127.884 42.3474C126.961 43.05 125.846 43.4752 124.759 43.8584C124.12 44.0843 123.458 44.2697 122.78 44.3118C122.064 44.3569 121.344 44.3834 120.627 44.4099C119.202 44.4629 117.776 44.494 116.35 44.5205C115.54 44.5345 114.73 44.547 113.919 44.561C113.52 44.5672 113.12 44.575 112.721 44.5828C112.516 44.5859 112.31 44.5906 112.105 44.5953C112.027 44.5953 111.941 44.589 111.863 44.5968C113.099 42.4689 114.336 40.341 115.573 38.2116C116.854 36.0074 118.134 33.8047 119.416 31.6005C120.699 29.3947 121.979 27.1905 123.261 24.9848C124.539 22.7868 125.815 20.5903 127.092 18.3939C128.376 16.185 129.66 13.9761 130.944 11.7672C131.105 11.49 131.266 11.2127 131.427 10.9354C131.503 10.8046 131.431 10.6379 131.289 10.5974" fill="white"/>
<path d="M50.2569 42.0966C49.6846 41.0592 49.142 40.003 48.6776 38.911C48.1929 37.7708 47.7613 36.6056 47.3094 35.4528C46.8528 34.2892 46.3962 33.1271 45.9412 31.9635C45.0312 29.6362 44.1211 27.3089 43.2142 24.9816C42.3026 22.6435 41.391 20.3037 40.4794 17.9655C40.026 16.8019 39.5725 15.6367 39.1191 14.4731C38.8939 13.8967 38.6687 13.3203 38.4436 12.744C38.2356 12.2096 38.0464 11.6629 37.8056 11.141C37.7024 10.9198 37.593 10.7017 37.4898 10.4821C37.4178 10.3294 37.163 10.3326 37.0895 10.4821C36.919 10.8279 36.7689 11.1597 36.6407 11.5242C36.4828 11.976 36.3233 12.4277 36.1638 12.881C35.8464 13.7845 35.529 14.6896 35.2115 15.5946C34.5658 17.4359 33.9231 19.2772 33.2914 21.1247C32.705 22.8413 32.2 24.6078 32.2594 26.4397C32.3063 27.851 32.6785 29.2748 33.8387 30.1845C34.4329 30.6503 35.1318 30.9104 35.8542 31.1114C36.722 31.3528 37.6117 31.5257 38.4717 31.789C38.6531 31.8451 38.8548 31.8996 39.0174 31.9977C39.155 32.0803 39.252 32.2221 39.3239 32.3623C39.3708 32.4573 39.4365 32.5959 39.4052 32.7018C39.3599 32.8561 39.1535 32.9947 39.0346 33.0866C38.8877 33.2019 38.7641 33.272 38.5781 33.3063C38.367 33.3436 38.1527 33.3717 37.9401 33.4075C37.4726 33.4838 37.0019 33.5493 36.5328 33.6225C35.6822 33.7549 34.8363 33.9184 34.0185 34.1942C33.3227 34.4309 32.6472 34.7363 32.0139 35.1086C30.7896 35.8298 29.7247 36.7925 28.8225 37.8814C27.9015 38.9936 27.2042 40.2507 26.3754 41.4268C25.5577 42.5873 24.5819 43.645 23.3263 44.3398C22.9886 44.5267 22.6368 44.6856 22.274 44.8196C22.0395 44.9053 22.0614 45.2713 22.335 45.2713H28.2143C28.3331 45.2713 28.4035 45.1981 28.4285 45.1109C28.4707 45.0205 28.4582 44.9146 28.3519 44.8539C28.3362 44.8414 28.3175 44.832 28.2971 44.8258C27.7827 44.5812 27.3918 44.1934 27.2323 43.6357C27.0634 43.0469 27.1166 42.3879 27.2605 41.8007C27.445 41.0452 27.8734 40.3582 28.2956 39.7117C28.6834 39.1167 29.1087 38.5341 29.6294 38.048C30.0953 37.6119 30.6379 37.2536 31.229 37.0106C31.8747 36.7458 32.5534 36.6383 33.2445 36.5806C34.0779 36.5121 34.9019 36.4607 35.7244 36.3049C36.4937 36.1601 37.2646 36.0121 38.012 35.7768C38.6562 35.5743 39.3317 35.3407 39.7523 34.7846C40.0979 34.3281 40.223 33.7409 40.2089 33.177C40.1949 32.5726 40.0541 31.965 39.5585 31.5709C39.1003 31.208 38.4952 31.0615 37.937 30.9229C36.6814 30.6113 35.3163 30.4384 34.2593 29.6284C33.479 29.0302 33.0913 28.1361 33.0068 27.1749C32.8692 25.6328 33.1694 24.089 33.6088 22.6201C34.0889 21.0094 34.6283 19.4174 35.1568 17.8222C35.2413 17.5652 35.3257 17.3097 35.4086 17.0527C35.5555 17.291 35.6462 17.5558 35.7526 17.83C35.9339 18.3004 36.1169 18.7709 36.2998 19.2398C36.6642 20.1791 37.0285 21.12 37.3928 22.0609C38.1137 23.9193 38.8329 25.7792 39.5459 27.6407C40.9673 31.3497 42.4277 35.0463 43.7459 38.7942C44.4464 40.7866 44.953 42.8724 44.4605 44.9754C44.4261 45.1202 44.5277 45.2667 44.684 45.2667H52.0019C52.1645 45.2667 52.3068 45.0657 52.202 44.9193C51.5343 43.9846 50.8119 43.1029 50.2553 42.0935" fill="white"/>
<path d="M171.964 44.9224C171.296 43.9877 170.574 43.1061 170.017 42.0966C169.445 41.0592 168.902 40.003 168.438 38.911C167.953 37.7708 167.523 36.6056 167.07 35.4528C166.613 34.2892 166.157 33.1271 165.702 31.9635C164.792 29.6362 163.882 27.3089 162.975 24.9816C162.063 22.6435 161.152 20.3037 160.24 17.9655C159.786 16.8019 159.333 15.6383 158.88 14.4731C158.654 13.8967 158.429 13.3203 158.206 12.744C157.998 12.2096 157.808 11.6629 157.568 11.141C157.466 10.9198 157.355 10.7017 157.252 10.4821C157.18 10.3294 156.925 10.3326 156.853 10.4821C156.683 10.8279 156.533 11.1597 156.404 11.5242C156.246 11.976 156.087 12.4277 155.927 12.881C155.61 13.7845 155.293 14.6896 154.975 15.5931C154.329 17.4343 153.687 19.2772 153.055 21.1231C152.469 22.8397 151.964 24.6062 152.023 26.4381C152.07 27.8495 152.444 29.2732 153.602 30.183C154.196 30.6487 154.895 30.9089 155.618 31.1098C156.486 31.3513 157.375 31.5242 158.235 31.7874C158.417 31.8435 158.617 31.898 158.781 31.9962C158.919 32.0787 159.016 32.2205 159.087 32.3607C159.134 32.4557 159.2 32.5944 159.169 32.7003C159.123 32.8545 158.917 32.9931 158.798 33.0851C158.65 33.2003 158.528 33.2704 158.342 33.3031C158.129 33.3405 157.916 33.3701 157.704 33.4044C157.236 33.4807 156.766 33.5477 156.296 33.6194C155.446 33.7518 154.6 33.9153 153.782 34.1911C153.086 34.4278 152.411 34.7332 151.777 35.1055C150.555 35.8267 149.488 36.7894 148.586 37.8782C147.665 38.9905 146.968 40.2476 146.139 41.4237C145.321 42.5842 144.346 43.6404 143.09 44.3367C142.752 44.5236 142.4 44.6825 142.038 44.8165C141.803 44.9021 141.823 45.2698 142.099 45.2698H147.978C148.097 45.2698 148.167 45.1966 148.191 45.1093C148.233 45.019 148.22 44.913 148.115 44.8523C148.1 44.8398 148.081 44.8305 148.061 44.8243C147.546 44.5797 147.155 44.1918 146.996 43.6341C146.827 43.0453 146.88 42.3864 147.024 41.7991C147.209 41.0436 147.637 40.3566 148.059 39.7102C148.447 39.1151 148.872 38.5325 149.393 38.0449C149.859 37.6088 150.401 37.2505 150.994 37.0075C151.64 36.7426 152.319 36.6352 153.01 36.5775C153.843 36.509 154.667 36.4576 155.49 36.3018C156.259 36.1569 157.03 36.0089 157.777 35.7737C158.421 35.5712 159.097 35.3376 159.517 34.7814C159.863 34.325 159.988 33.7377 159.974 33.1738C159.96 32.5694 159.819 31.9619 159.324 31.5678C158.865 31.2048 158.26 31.0584 157.702 30.9198C156.447 30.6082 155.081 30.4353 154.024 29.6253C153.244 29.0271 152.856 28.133 152.772 27.1718C152.634 25.6297 152.935 24.0859 153.374 22.617C153.854 21.0063 154.393 19.4142 154.922 17.8191C155.006 17.5621 155.091 17.3066 155.174 17.0496C155.321 17.2879 155.41 17.5527 155.516 17.8269C155.698 18.2973 155.88 18.7678 156.063 19.2367C156.428 20.176 156.792 21.1169 157.156 22.0577C157.877 23.9161 158.597 25.7761 159.31 27.6376C160.731 31.3466 162.191 35.0431 163.509 38.7911C164.21 40.7834 164.717 42.8693 164.224 44.9722C164.19 45.1171 164.293 45.2635 164.448 45.2635H171.764C171.928 45.2635 172.069 45.0626 171.964 44.9162" fill="white"/>
<path d="M21.561 37.7303C21.4828 37.7131 21.4046 37.6944 21.3249 37.6773C21.2092 37.6508 21.0653 37.7116 21.0403 37.8377C20.8902 38.573 20.6118 39.2693 20.1912 39.8924C19.7628 40.5264 19.1905 41.0436 18.601 41.5265C17.4767 42.4502 16.1977 43.1933 14.8326 43.7011C13.4957 44.198 12.0869 44.4784 10.664 44.575C9.91813 44.6249 9.16915 44.628 8.42173 44.5922C8.04333 44.5735 7.66493 44.5454 7.28653 44.5096C6.96442 44.4784 6.6642 44.3974 6.39369 44.2152C5.84486 43.8444 5.63689 43.1653 5.54151 42.5453C5.47428 42.106 5.47584 41.6636 5.47428 41.2196C5.47428 40.7523 5.47428 40.2834 5.47271 39.8161C5.46959 37.9452 5.46802 36.0744 5.46646 34.202C5.46333 30.4369 5.46177 26.6702 5.46646 22.9052C5.46959 21.0592 5.46177 19.2117 5.48522 17.3658C5.50711 15.5962 5.59624 13.8126 6.03406 12.0897C6.14039 11.6722 6.26548 11.261 6.41246 10.8544C6.46406 10.7111 6.32959 10.5631 6.18886 10.5631H0.304895C0.159477 10.5631 0.0359497 10.7111 0.0812952 10.8544C0.236095 11.3467 0.445622 11.8264 0.528495 12.3374C0.617622 12.8888 0.70675 13.4418 0.783368 13.9948C0.939732 15.1289 0.928786 16.2629 0.938168 17.4047C0.956932 19.6853 0.974132 21.9658 0.986641 24.2448C0.99915 26.5363 1.0101 28.8277 1.01322 31.1192C1.01791 33.3997 1.01635 35.6803 1.00697 37.9593C0.997586 40.0513 1.0226 42.1901 0.325222 44.1934C0.236095 44.4488 0.136022 44.6996 0.0234406 44.9473C-0.046923 45.1015 0.0343861 45.2947 0.223586 45.2947H20.3257C20.4179 45.2947 20.5321 45.223 20.5493 45.1249C20.9402 42.754 21.3311 40.3831 21.722 38.0107C21.7251 37.9904 21.7251 37.9717 21.7251 37.953C21.7345 37.8549 21.6861 37.7552 21.561 37.7271" fill="white"/>
<path d="M139.723 10.5444H133.896C133.8 10.5444 133.736 10.5911 133.702 10.655C133.669 10.7017 133.655 10.764 133.672 10.8357C133.802 11.3575 133.957 11.8747 134.077 12.3997C134.198 12.9309 134.269 13.473 134.34 14.012C134.412 14.5603 134.471 15.1117 134.491 15.6647C134.513 16.2286 134.502 16.7957 134.504 17.3596C134.51 19.6385 134.517 21.9175 134.521 24.1965C134.526 26.4864 134.526 28.7763 134.524 31.0662C134.521 33.3452 134.513 35.6242 134.501 37.9032C134.488 39.9999 134.609 42.1854 133.883 44.1902C133.791 44.4441 133.685 44.6918 133.566 44.9333C133.491 45.0875 133.58 45.2807 133.766 45.2807H139.636C139.792 45.2807 139.891 45.1342 139.859 44.9894C139.62 43.9239 139.337 42.8661 139.19 41.782C139.039 40.6682 139.076 39.5404 139.071 38.4203C139.06 36.1351 139.048 33.8515 139.039 31.5678C139.018 26.9989 139.006 22.43 139.018 17.8612C139.024 15.4825 139.007 13.0711 139.947 10.8373C140.006 10.6955 139.859 10.546 139.723 10.546" fill="white"/>
<path d="M101.86 40.5514C101.344 38.5761 101.233 36.5526 101.236 34.5197C101.238 32.4495 101.261 30.3792 101.263 28.309C101.264 26.2543 101.266 24.1997 101.263 22.1434C101.263 21.0982 101.25 20.0529 101.256 19.0077C101.261 18.1182 101.35 17.2303 101.536 16.3595C101.747 15.3859 102.074 14.4372 102.517 13.5431C102.739 13.0945 102.981 12.6474 103.27 12.2377C103.588 11.7891 103.963 11.384 104.304 10.9525C104.423 10.803 104.357 10.56 104.14 10.56H97.6147C97.3974 10.56 97.3332 10.8046 97.4505 10.9525C97.7992 11.3918 98.1792 11.8093 98.5091 12.2642C98.8187 12.6894 99.0814 13.1537 99.3175 13.6225C99.7788 14.5385 100.11 15.5168 100.314 16.5199C100.528 17.5761 100.561 18.6338 100.559 19.7055C100.559 20.905 100.557 22.106 100.557 23.3055C100.557 25.7278 100.557 28.1517 100.556 30.5755C100.556 32.9869 100.556 35.3983 100.556 37.8113C100.556 39.0232 100.556 40.2336 100.556 41.4455C100.556 42.0421 100.575 42.6418 100.548 43.2369C100.529 43.6591 100.481 44.2323 100.146 44.5407C99.8867 44.7791 99.5583 44.6031 99.3363 44.4006C98.9532 44.0516 98.6123 43.6373 98.3246 43.2073C98.0197 42.7493 97.8164 42.2571 97.6131 41.7477C97.3958 41.2009 97.1831 40.6526 96.9752 40.1012C96.1464 37.8892 95.4678 35.6335 94.8095 33.3655C94.1419 31.0678 93.4945 28.7623 92.8284 26.4646C92.1904 24.2635 91.5712 22.0468 90.7738 19.8956C90.0264 17.8814 89.1038 15.8922 87.8295 14.1506C87.5042 13.7051 87.1446 13.2861 86.7818 12.8717C86.1673 12.1333 85.4058 11.5133 84.5349 11.099C83.8907 10.7921 83.1464 10.5397 82.424 10.5304C82.424 10.5304 82.424 10.5304 82.4208 10.5304C81.1215 10.4058 79.8143 10.5678 78.5118 10.4899C78.2897 10.4759 78.235 10.7407 78.3476 10.8825C78.6884 11.3108 79.0622 11.7143 79.3874 12.1536C79.7032 12.582 79.9612 13.0555 80.2005 13.5306C80.6836 14.4886 81.0417 15.5059 81.2465 16.5589C81.467 17.6898 81.4451 18.827 81.4483 19.975C81.4514 21.2306 81.4545 22.4877 81.4561 23.7432C81.4608 26.245 81.4623 28.7452 81.4561 31.2469C81.453 32.4916 81.4483 33.7362 81.4404 34.9808C81.4326 36.2068 81.4905 37.453 81.2919 38.668C80.9573 40.7134 80.2896 42.7758 78.8511 44.3227C78.6728 44.5143 78.4836 44.6981 78.2882 44.8741C78.1365 45.0096 78.2584 45.2667 78.4523 45.2667H85.1072C85.3261 45.2667 85.3886 45.0221 85.2714 44.8741C84.8523 44.3414 84.3863 43.8398 84.0158 43.2712C83.6749 42.7493 83.3825 42.1917 83.1307 41.6231C82.6319 40.4953 82.3208 39.2787 82.2207 38.0496C82.1644 37.3673 82.1816 36.6819 82.1816 35.998C82.1816 35.2784 82.1816 34.5602 82.1816 33.8406C82.1816 32.3903 82.18 30.9416 82.1785 29.4913C82.1785 26.5924 82.1785 23.6918 82.1785 20.7929C82.1785 19.3426 82.1816 17.8939 82.1847 16.4436C82.1879 15.1367 82.1097 13.7658 82.6804 12.5477C82.829 12.2299 83.04 11.9028 83.3872 11.7782C83.7531 11.6473 84.219 11.7252 84.5646 11.8825C85.5731 12.3421 86.2924 13.2424 86.8147 14.1927C87.4276 15.3111 87.7231 16.5636 88.0327 17.7911C88.3814 19.1712 88.6551 20.5623 88.8568 21.9721C89.2664 24.8305 89.5839 27.6999 89.9654 30.5615C90.3172 33.2003 90.6768 35.8672 91.6479 38.3643C92.4453 40.4143 93.6384 42.4721 95.4475 43.793C96.2919 44.4099 97.2754 44.8305 98.3074 45.0127C99.6896 45.2589 101.102 45.2542 102.501 45.262C102.836 45.2635 103.17 45.2667 103.505 45.2729C103.678 45.276 103.866 45.304 104.04 45.2869C104.202 45.2713 104.265 45.1561 104.356 45.0377C104.413 44.9613 104.388 44.8196 104.32 44.7588C103.056 43.6482 102.288 42.1527 101.862 40.5451" fill="white"/>
<path d="M62.1311 9.0739H62.902C62.902 9.0739 65.8494 3.06566 69.5678 1.39575H66.6203L62.1311 9.0739Z" fill="white"/>
<path d="M63.776 10.4696H59.6949L65.815 0H76.0772L70.1432 2.66687C67.4709 3.86789 64.9191 8.1408 64.1607 9.68609L63.776 10.4681V10.4696Z" fill="white"/>
</g>
<defs>
<clipPath id="clip0_13_2">
<rect width="172" height="62" fill="white"/>
</clipPath>
</defs>
</svg>
