<svg width="288" height="104" viewBox="0 0 288 104" fill="none" xmlns="http://www.w3.org/2000/svg">
<g clip-path="url(#clip0_162_564)">
<path d="M53.9243 103.031C53.9033 102.596 53.8693 102.218 53.8693 101.839C53.864 96.8732 53.864 91.907 53.864 86.9433C53.864 86.6747 53.8064 86.3799 53.8955 86.1426C53.9923 85.8791 54.1756 85.5661 54.4086 85.4487C55.1365 85.0862 56.2885 85.4409 56.7728 86.1269C59.2889 89.6951 61.7997 93.2659 64.3106 96.8367C64.8368 97.5853 65.3395 98.3521 65.8867 99.0851C66.0988 99.3668 66.4051 99.5807 66.8816 100.021C66.9733 99.299 67.0754 98.8634 67.078 98.4304C67.0937 94.6953 67.0911 90.9627 67.0963 87.2302C67.0963 86.9224 67.0832 86.6121 67.1146 86.3069C67.1644 85.8243 67.2953 85.3888 67.9132 85.3705C68.4813 85.3522 68.7877 85.6418 68.8557 86.2886C68.8767 86.479 68.8636 86.6721 68.8636 86.8651C68.8636 91.8704 68.8636 96.8732 68.8636 101.879C68.8636 102.147 68.895 102.432 68.8217 102.682C68.7667 102.872 68.5992 103.097 68.4237 103.172C67.6147 103.522 66.4077 103.193 65.9338 102.507C63.2188 98.6104 60.509 94.7083 57.8044 90.8063C57.4352 90.2742 57.121 89.7003 56.7205 89.1917C56.5817 89.0169 56.2623 88.9022 56.0319 88.9126C55.9114 88.9178 55.7517 89.2386 55.7046 89.4395C55.6444 89.6951 55.6758 89.9742 55.6758 90.2429C55.6732 93.8606 55.6706 97.481 55.6653 101.099C55.6653 101.367 55.6653 101.639 55.6627 101.907C55.6313 103.282 55.4245 103.431 53.9295 103.037" fill="black"/>
<path d="M199.411 103.042C197.743 103.433 197.573 103.389 196.798 102.129C195.554 100.105 194.363 98.0496 193.104 96.0333C192.86 95.6421 192.457 95.183 192.054 95.0943C191.399 94.9535 190.666 95.0109 190.004 95.1569C189.768 95.2091 189.551 95.7464 189.488 96.0907C189.386 96.6515 189.402 97.2384 189.396 97.8148C189.386 99.1998 189.396 100.585 189.386 101.97C189.373 103.355 189.171 103.483 187.718 103.011C187.7 102.658 187.663 102.28 187.663 101.899C187.661 96.8967 187.663 91.8965 187.663 86.8938C187.663 86.7007 187.653 86.5077 187.671 86.3173C187.734 85.66 187.951 85.3809 188.595 85.3757C190.719 85.3679 192.852 85.3027 194.963 85.4774C195.861 85.5531 196.822 86.02 197.565 86.5625C199.812 88.2057 199.856 92.2695 197.068 94.0588C196.751 94.2623 196.363 94.364 195.999 94.4814C194.947 94.8152 194.806 95.1126 195.353 96.0359C196.56 98.0783 197.785 100.108 198.992 102.147C199.141 102.4 199.246 102.682 199.411 103.037M189.399 90.102H189.412C189.412 90.4098 189.412 90.7176 189.412 91.0253C189.412 91.3696 189.409 91.7166 189.428 92.0609C189.483 92.9946 189.855 93.3467 190.8 93.3911C192.237 93.4589 193.651 93.3207 195.044 92.9712C195.968 92.739 196.594 92.113 196.934 91.2784C197.683 89.4447 196.633 87.5484 194.607 87.2172C193.284 87.0007 191.918 87.0033 190.572 87.0007C189.737 87.0007 189.446 87.3763 189.407 88.2579C189.378 88.8709 189.402 89.4864 189.402 90.102" fill="black"/>
<path d="M105.133 103.05C103.486 103.472 103.24 103.318 102.732 101.952C102.412 101.091 101.991 100.269 101.614 99.4294C101.381 98.9129 100.978 98.7121 100.415 98.7147C97.9065 98.7251 95.3957 98.7147 92.8875 98.7199C92.2513 98.7199 91.8219 98.9573 91.5967 99.6328C91.3192 100.465 90.9186 101.258 90.5521 102.059C89.942 103.404 89.743 103.485 88.125 103.016C88.3894 102.309 88.6225 101.597 88.9183 100.913C90.3662 97.5774 91.8271 94.2466 93.2907 90.9184C93.9688 89.3795 94.6731 87.851 95.3407 86.3069C95.5737 85.7696 95.8722 85.4148 96.5084 85.36C97.1865 85.3027 97.6159 85.5844 97.8856 86.1582C98.1971 86.8129 98.4956 87.4728 98.7889 88.1353C100.061 91.0045 101.336 93.8736 102.596 96.748C103.363 98.4982 104.109 100.256 104.85 102.019C104.978 102.325 105.028 102.661 105.133 103.052M96.621 88.0492C96.3382 88.5005 96.1157 88.7822 95.9691 89.1004C95.647 89.7942 95.3617 90.5063 95.0658 91.2105C94.4296 92.7234 93.7777 94.2336 93.1676 95.7568C92.8482 96.5524 93.1074 96.9462 93.9609 96.9567C95.7334 96.9801 97.5086 96.9827 99.2837 96.9541C100.242 96.9384 100.412 96.6202 100.051 95.7021C99.7707 94.9952 99.4879 94.2883 99.2025 93.5815C98.5846 92.0582 97.9798 90.5297 97.3384 89.0143C97.2127 88.717 96.9509 88.4796 96.6236 88.0466" fill="black"/>
<path d="M234.133 103.026C232.675 103.475 232.314 103.324 231.78 102.051C231.426 101.203 231.083 100.353 230.748 99.4972C230.536 98.9599 230.117 98.7408 229.573 98.7277C228.8 98.7095 228.028 98.7043 227.255 98.7043C225.556 98.7043 223.854 98.7277 222.155 98.7043C221.302 98.6938 220.799 99.0303 220.537 99.8623C220.299 100.624 219.901 101.336 219.618 102.087C219.16 103.308 218.618 103.535 217.181 102.948C217.568 101.962 217.935 100.963 218.354 99.9849C219.259 97.8748 220.194 95.7803 221.113 93.6754C222.158 91.2862 223.174 88.8813 224.263 86.5129C224.467 86.0669 224.899 85.6105 225.339 85.4174C226.025 85.1175 226.603 85.4618 226.978 86.2652C227.737 87.898 228.462 89.5464 229.193 91.1923C230.125 93.2946 231.049 95.4021 231.968 97.5096C232.67 99.1242 233.358 100.744 234.037 102.366C234.12 102.567 234.105 102.81 234.133 103.024M229.036 96.9123C229.442 96.2968 229.216 95.8925 229.036 95.4569C228.127 93.2659 227.253 91.0619 226.334 88.8761C226.234 88.6387 225.923 88.3362 225.713 88.3362C225.488 88.3362 225.161 88.6205 225.061 88.8578C224.074 91.1845 223.124 93.5267 222.168 95.8664C221.872 96.5941 222.095 96.9358 222.938 96.9488C224.598 96.9775 226.258 96.9645 227.918 96.9593C228.3 96.9593 228.68 96.9254 229.036 96.9071" fill="black"/>
<path d="M166.828 92.2356C166.739 94.3118 166.673 96.3881 166.55 98.4617C166.417 100.718 164.404 103.365 161.571 103.717C159.955 103.918 158.437 103.843 156.976 103.201C155.332 102.476 154.305 101.143 153.876 99.4346C153.627 98.4356 153.53 97.3792 153.517 96.3489C153.473 93.232 153.496 90.1124 153.499 86.9955C153.499 86.6877 153.483 86.3695 153.559 86.0774C153.661 85.6939 153.878 85.3861 154.358 85.3757C154.868 85.3653 155.169 85.6392 155.279 86.0826C155.36 86.4112 155.326 86.7712 155.326 87.1155C155.337 90.5037 155.342 93.8919 155.358 97.2775C155.363 98.6364 155.787 99.8519 156.772 100.817C158.052 102.074 159.578 102.468 161.33 102.03C163.67 101.446 164.524 99.6876 164.877 97.5592C164.977 96.9567 164.945 96.3307 164.945 95.7151C164.951 92.8277 164.945 89.9403 164.951 87.0529C164.951 86.7451 164.94 86.4347 164.98 86.1295C165.04 85.6574 165.278 85.3705 165.817 85.3757C166.341 85.3809 166.608 85.647 166.692 86.1139C166.747 86.4138 166.736 86.7268 166.736 87.0346C166.739 88.7665 166.736 90.4985 166.736 92.233C166.765 92.233 166.794 92.233 166.823 92.2356" fill="black"/>
<path d="M126.447 102.99V101.772C126.447 97.4627 126.447 93.1563 126.447 88.8474C126.447 88.5396 126.429 88.2318 126.442 87.924C126.466 87.3476 126.165 87.0581 125.623 87.0268C124.929 86.9876 124.235 86.9876 123.539 86.9798C122.921 86.972 122.303 86.985 121.685 86.9694C120.436 86.9355 120.284 86.6981 120.75 85.42C121.096 85.4018 121.473 85.3679 121.85 85.3679C125.518 85.3627 129.189 85.3574 132.857 85.3757C133.262 85.3757 133.726 85.42 134.058 85.6183C134.661 85.973 134.579 86.586 133.933 86.8181C133.613 86.9329 133.255 86.9642 132.912 86.972C131.985 86.9929 131.058 86.9772 130.131 86.9824C128.327 86.9903 128.267 87.0529 128.267 88.8943C128.267 92.8929 128.267 96.8941 128.267 100.895C128.267 101.242 128.267 101.586 128.264 101.933C128.246 103.313 127.968 103.491 126.45 102.992" fill="black"/>
<path d="M126.825 63.4658C126.267 65.2134 125.325 66.8018 124.066 68.1399C122.804 69.478 121.29 70.5552 119.698 71.4707C115.975 73.6122 111.747 74.6346 107.466 74.7416C106.385 74.7676 105.301 74.7416 104.222 74.6685C103.458 74.6164 102.696 74.4938 102.036 74.0843C100.609 73.2027 100.392 71.3716 100.374 69.8483C100.313 64.9473 100.368 60.0437 100.368 55.1426C100.368 50.2285 100.368 45.3144 100.368 40.4004V39.2475C104.055 39.2996 107.775 39.2475 111.404 39.9882C112.493 40.2099 113.564 40.5047 114.611 40.8725C114.789 40.9351 114.928 40.8672 115.009 40.7499C115.067 40.6899 115.104 40.6064 115.104 40.4995V36.8035C115.104 36.5661 114.855 36.347 114.614 36.4305C110.975 37.706 107.126 37.9381 103.301 38.0033C102.324 38.0216 101.348 38.0294 100.371 38.045C100.371 34.6386 100.358 31.2321 100.361 27.823C100.361 26.9075 100.363 25.9894 100.371 25.0738C100.376 24.2705 100.355 23.4593 100.413 22.6559C100.486 21.6335 100.748 20.5353 101.481 19.7737C102.23 18.9938 103.269 18.7878 104.309 18.7252C105.984 18.6261 107.665 18.6026 109.338 18.7043C112.616 18.9025 115.876 19.625 118.827 21.0831C120.104 21.7143 121.314 22.4916 122.301 23.5245C122.806 24.054 123.238 24.6409 123.597 25.2799C123.778 25.6033 123.937 25.9372 124.073 26.2815C124.141 26.4562 124.186 26.6154 124.354 26.7197C124.482 26.8032 124.644 26.8475 124.783 26.9127C125.079 27.0509 125.443 26.8214 125.351 26.4771C125.008 25.1886 124.652 23.9053 124.306 22.6194C124.139 21.996 123.974 21.37 123.814 20.744C123.662 20.1545 123.545 19.5494 123.372 18.9651C123.262 18.5974 123.094 18.2296 122.796 17.974C122.479 17.7053 122.078 17.6062 121.67 17.5723C121.031 17.5201 120.377 17.5671 119.735 17.5697C119.044 17.5723 118.353 17.5749 117.659 17.5775C112.121 17.5958 106.587 17.5958 101.049 17.5932C97.9858 17.5932 94.9226 17.5906 91.8593 17.5906C91.6027 17.5906 91.4247 17.8357 91.4849 18.0783C91.6996 18.9417 91.9797 19.7868 92.1761 20.6553C92.3777 21.5448 92.4274 22.4629 92.5138 23.368C92.6945 25.2616 92.8647 27.1579 92.9511 29.0594C93.0375 30.9687 93.0244 32.8832 93.0349 34.7925C93.048 36.7122 93.0558 38.6319 93.061 40.549C93.0846 48.194 93.0689 55.8364 93.0087 63.4814C92.9773 67.4956 92.828 71.5542 91.3802 75.3493C91.3095 75.5319 91.4587 75.7901 91.6498 75.824C92.417 75.9623 93.1998 75.9127 93.9774 75.9153C94.7472 75.9153 95.5143 75.9153 96.284 75.9153H101.01C104.123 75.9153 107.236 75.9153 110.349 75.9153C113.462 75.9153 116.575 75.9205 119.688 75.9231C121.264 75.9231 122.84 75.957 124.416 75.9336C124.888 75.9257 125.356 75.8005 125.621 75.3806C125.901 74.9346 125.917 74.3164 125.995 73.813C126.27 72.0993 126.553 70.3857 126.836 68.672C127.116 66.9766 127.467 65.2812 127.582 63.5675C127.611 63.1189 126.948 63.0641 126.82 63.4658" fill="black"/>
<path d="M219.836 17.7418C219.606 17.674 219.409 17.6062 219.168 17.6036C218.765 17.601 218.359 17.6036 217.956 17.6036C217.165 17.6036 216.377 17.6036 215.587 17.6036C214.047 17.6036 212.505 17.6036 210.966 17.6036C207.845 17.6036 204.726 17.6036 201.606 17.5984C198.485 17.5984 195.366 17.5958 192.246 17.5906C190.685 17.5906 189.125 17.5879 187.567 17.5853C186.776 17.5853 185.988 17.5853 185.197 17.5827C184.852 17.5827 184.504 17.5827 184.158 17.5827C183.844 17.5827 183.532 17.5827 183.239 17.7105C182.705 17.9479 182.561 18.5087 182.422 19.0251C182.2 19.8494 181.974 20.6736 181.744 21.4952C181.511 22.3351 181.275 23.1776 181.042 24.0175C180.93 24.4192 180.82 24.8208 180.71 25.2251C180.592 25.6529 180.547 26.0233 180.532 26.4641C180.521 26.8266 181.095 27.017 181.254 26.6597C182.032 24.9043 183.236 23.3706 184.844 22.296C185.598 21.7926 186.423 21.4352 187.229 21.0231C187.868 20.6971 188.496 20.3502 189.159 20.0737C191.122 19.2521 193.269 19.1921 195.366 19.059C197.922 18.8973 200.48 18.7982 203.04 18.7174C205.844 18.6287 208.651 18.5635 211.455 18.4617L211.471 18.493C209.355 22.1317 207.237 25.7677 205.122 29.4037C202.972 33.0997 200.82 36.7957 198.671 40.4917C196.518 44.1903 194.366 47.8889 192.214 51.5901C190.059 55.2939 187.905 58.9977 185.75 62.7015C183.59 66.4106 181.432 70.1222 179.272 73.8339C179.003 74.2982 178.733 74.7624 178.461 75.2267C178.346 75.425 178.44 75.751 178.691 75.7927C178.927 75.8319 179.162 75.8945 179.403 75.9127C179.775 75.9414 180.155 75.9179 180.527 75.9179C181.296 75.9179 182.066 75.9179 182.836 75.9179C184.415 75.9179 185.993 75.9179 187.572 75.9179C190.69 75.9179 193.809 75.9179 196.927 75.9179C200.084 75.9179 203.242 75.9179 206.399 75.9231C207.957 75.9231 209.518 75.9231 211.078 75.9284C211.869 75.9284 212.657 75.9284 213.445 75.931C214.034 75.931 214.744 76.0431 215.304 75.8188C215.875 75.5919 216.055 75.0546 216.197 74.5068C216.414 73.6617 216.636 72.8166 216.862 71.9741C217.087 71.1317 217.315 70.2892 217.542 69.4467C217.65 69.0424 217.76 68.6407 217.864 68.2364C217.98 67.806 218.027 67.4174 218.048 66.974C218.063 66.6114 217.482 66.4236 217.325 66.7784C216.618 68.4007 215.547 69.8301 214.131 70.9073C212.586 72.0837 210.719 72.7958 208.9 73.4374C207.829 73.8156 206.721 74.126 205.585 74.1964C204.386 74.2721 203.182 74.3164 201.98 74.3608C199.595 74.4494 197.207 74.5016 194.819 74.5459C193.463 74.5694 192.107 74.5903 190.748 74.6138C190.08 74.6242 189.41 74.6372 188.742 74.6503C188.399 74.6555 188.054 74.6633 187.711 74.6712C187.58 74.6712 187.436 74.6607 187.305 74.6738C189.376 71.1108 191.447 67.5478 193.518 63.9822C195.662 60.2915 197.807 56.6033 199.953 52.9125C202.1 49.2191 204.245 45.5283 206.392 41.8349C208.531 38.1546 210.667 34.4769 212.806 30.7991C214.956 27.1005 217.105 23.4019 219.255 19.7033C219.524 19.239 219.794 18.7747 220.064 18.3105C220.192 18.0914 220.072 17.8123 219.833 17.7444" fill="black"/>
<path d="M84.1505 70.4874C83.1923 68.7502 82.2838 66.9818 81.5062 65.1534C80.6945 63.2441 79.9719 61.293 79.2153 59.3629C78.4507 57.4145 77.6862 55.4687 76.9243 53.5202C75.4006 49.6234 73.8768 45.7266 72.3582 41.8297C70.8318 37.9146 69.3054 33.9969 67.779 30.0818C67.0198 28.1334 66.2605 26.1824 65.5012 24.234C65.1242 23.2689 64.7472 22.3038 64.3702 21.3387C64.0219 20.4441 63.7051 19.5285 63.3019 18.6547C63.1291 18.2844 62.9459 17.9192 62.7731 17.5514C62.6526 17.2958 62.2259 17.301 62.1028 17.5514C61.8174 18.1305 61.5661 18.686 61.3514 19.2964C61.087 20.0528 60.8199 20.8092 60.5529 21.5682C60.0214 23.0811 59.4899 24.5965 58.9584 26.1119C57.8771 29.195 56.801 32.278 55.7433 35.3715C54.7614 38.2459 53.9158 41.2037 54.0153 44.2711C54.0938 46.6343 54.7169 49.0183 56.6596 50.5415C57.6545 51.3214 58.8249 51.757 60.0345 52.0935C61.4875 52.4978 62.9773 52.7873 64.4173 53.2281C64.721 53.322 65.0587 53.4133 65.331 53.5776C65.5614 53.7159 65.7238 53.9532 65.8442 54.188C65.9227 54.3471 66.0327 54.5792 65.9803 54.7566C65.9044 55.0148 65.5588 55.2469 65.3598 55.4008C65.1137 55.5938 64.9069 55.7112 64.5953 55.7686C64.2419 55.8312 63.8832 55.8782 63.5271 55.9382C62.7443 56.066 61.9562 56.1755 61.1707 56.2981C59.7465 56.5198 58.33 56.7937 56.9607 57.2554C55.7956 57.6518 54.6646 58.1631 53.6042 58.7864C51.5542 59.9941 49.7712 61.606 48.2605 63.4293C46.7184 65.2916 45.5507 67.3965 44.163 69.3658C42.7937 71.309 41.16 73.0801 39.0576 74.2434C38.4921 74.5564 37.903 74.8224 37.2955 75.0467C36.9028 75.1902 36.9395 75.8032 37.3977 75.8032H47.242C47.441 75.8032 47.5588 75.6806 47.6007 75.5345C47.6714 75.3832 47.6505 75.2058 47.4724 75.1041C47.4462 75.0833 47.4148 75.0676 47.3808 75.0572C46.5194 74.6477 45.8649 73.9982 45.5978 73.0644C45.315 72.0785 45.4041 70.9751 45.6449 69.9918C45.9539 68.7268 46.6713 67.5765 47.3782 66.494C48.0275 65.4977 48.7396 64.5221 49.6115 63.7084C50.3917 62.978 51.3002 62.3781 52.2899 61.9712C53.3712 61.5278 54.5075 61.3478 55.6647 61.2513C57.0602 61.1365 58.44 61.0505 59.8171 60.7896C61.1053 60.5471 62.3961 60.2993 63.6476 59.9054C64.7262 59.5663 65.8573 59.1751 66.5616 58.2439C67.1402 57.4797 67.3497 56.4963 67.3261 55.5521C67.3025 54.5401 67.0669 53.5228 66.2369 52.8629C65.4698 52.2552 64.4566 52.01 63.5219 51.7779C61.4195 51.2562 59.1338 50.9667 57.3639 49.6104C56.0574 48.6088 55.4081 47.1116 55.2667 45.5022C55.0363 42.92 55.539 40.3351 56.2747 37.8755C57.0785 35.1785 57.9818 32.5128 58.8667 29.8419C59.0081 29.4115 59.1495 28.9837 59.2883 28.5533C59.5344 28.9524 59.6862 29.3958 59.8643 29.8549C60.168 30.6426 60.4743 31.4303 60.7806 32.2154C61.3907 33.7883 62.0007 35.3637 62.6107 36.9391C63.8177 40.0508 65.0221 43.1652 66.216 46.2821C68.5959 52.4926 71.0413 58.6821 73.2484 64.9577C74.4214 68.2938 75.2697 71.7863 74.4449 75.3076C74.3873 75.5501 74.5575 75.7953 74.8193 75.7953H87.0724C87.3447 75.7953 87.583 75.4589 87.4075 75.2137C86.2896 73.6487 85.08 72.1724 84.1479 70.4822" fill="black"/>
<path d="M287.94 75.2189C286.822 73.6539 285.612 72.1776 284.68 70.4874C283.722 68.7502 282.814 66.9818 282.036 65.1534C281.224 63.2441 280.504 61.293 279.745 59.3629C278.981 57.4145 278.216 55.4686 277.454 53.5202C275.93 49.6234 274.407 45.7266 272.888 41.8297C271.362 37.9146 269.835 33.9969 268.309 30.0818C267.55 28.1334 266.79 26.185 266.031 24.234C265.654 23.2689 265.277 22.3038 264.903 21.3387C264.554 20.4441 264.238 19.5285 263.834 18.6547C263.664 18.2844 263.478 17.9192 263.306 17.5514C263.185 17.2958 262.758 17.301 262.638 17.5514C262.353 18.1305 262.101 18.686 261.886 19.2964C261.622 20.0528 261.355 20.8092 261.088 21.5682C260.556 23.0811 260.025 24.5965 259.493 26.1093C258.412 29.1924 257.336 32.278 256.278 35.3689C255.297 38.2433 254.451 41.2011 254.55 44.2685C254.629 46.6316 255.255 49.0156 257.195 50.5389C258.19 51.3188 259.36 51.7544 260.57 52.0909C262.023 52.4952 263.512 52.7847 264.952 53.2255C265.256 53.3194 265.591 53.4107 265.866 53.575C266.097 53.7132 266.259 53.9506 266.379 54.1854C266.458 54.3445 266.568 54.5766 266.515 54.754C266.439 55.0122 266.094 55.2443 265.895 55.3982C265.646 55.5912 265.442 55.7086 265.13 55.7634C264.774 55.826 264.418 55.8755 264.062 55.9329C263.279 56.0607 262.491 56.1729 261.706 56.2929C260.282 56.5146 258.865 56.7885 257.496 57.2501C256.331 57.6466 255.2 58.1578 254.139 58.7812C252.092 59.9889 250.306 61.6008 248.796 63.424C247.253 65.2864 246.086 67.3913 244.698 69.3606C243.329 71.3038 241.695 73.0722 239.593 74.2382C239.027 74.5512 238.438 74.8172 237.831 75.0415C237.438 75.185 237.472 75.8005 237.933 75.8005H247.777C247.976 75.8005 248.094 75.6779 248.133 75.5319C248.204 75.3806 248.183 75.2032 248.007 75.1015C247.981 75.0806 247.95 75.065 247.916 75.0546C247.054 74.6451 246.4 73.9956 246.133 73.0618C245.85 72.0758 245.939 70.9725 246.18 69.9892C246.489 68.7242 247.206 67.5739 247.913 66.4914C248.563 65.495 249.275 64.5195 250.147 63.7031C250.927 62.9728 251.835 62.3729 252.828 61.966C253.909 61.5226 255.045 61.3426 256.202 61.2461C257.598 61.1313 258.978 61.0452 260.355 60.7844C261.643 60.5418 262.934 60.294 264.185 59.9002C265.264 59.5611 266.395 59.1699 267.099 58.2387C267.678 57.4744 267.887 56.4911 267.864 55.5469C267.84 54.5349 267.605 53.5176 266.775 52.8577C266.007 52.25 264.994 52.0048 264.06 51.7727C261.957 51.251 259.671 50.9615 257.902 49.6051C256.595 48.6035 255.946 47.1064 255.804 45.497C255.574 42.9148 256.077 40.3299 256.812 37.8703C257.616 35.1733 258.52 32.5076 259.404 29.8366C259.546 29.4063 259.687 28.9785 259.826 28.5481C260.072 28.9472 260.221 29.3906 260.399 29.8497C260.703 30.6374 261.009 31.4251 261.316 32.2102C261.926 33.783 262.536 35.3585 263.146 36.9339C264.353 40.0456 265.557 43.16 266.751 46.2769C269.131 52.4873 271.576 58.6769 273.783 64.9525C274.956 68.2886 275.805 71.7811 274.98 75.3024C274.922 75.5449 275.095 75.7901 275.354 75.7901H287.605C287.88 75.7901 288.115 75.4536 287.94 75.2085" fill="black"/>
<path d="M36.1019 63.1762C35.971 63.1475 35.84 63.1162 35.7065 63.0876C35.5128 63.0432 35.2719 63.1449 35.23 63.3562C34.9787 64.5873 34.5126 65.7533 33.8083 66.7966C33.091 67.8582 32.1327 68.7241 31.1456 69.5327C29.2632 71.0795 27.1215 72.3236 24.8358 73.174C22.5973 74.006 20.2383 74.4755 17.8558 74.6372C16.6069 74.7207 15.3528 74.7259 14.1013 74.6659C13.4677 74.6346 12.8341 74.5877 12.2005 74.5277C11.6611 74.4755 11.1584 74.3399 10.7055 74.0347C9.78652 73.4139 9.4383 72.2767 9.27859 71.2386C9.16601 70.503 9.16863 69.7623 9.16601 69.0189C9.16601 68.2364 9.16601 67.4513 9.16339 66.6688C9.15815 63.5362 9.15554 60.4036 9.15292 57.2684C9.14768 50.9641 9.14506 44.6571 9.15292 38.3528C9.15815 35.2619 9.14506 32.1685 9.18434 29.0776C9.22099 26.1145 9.37023 23.128 10.1033 20.2432C10.2814 19.5442 10.4908 18.8556 10.7369 18.1748C10.8233 17.9348 10.5982 17.687 10.3625 17.687H0.510301C0.26681 17.687 0.0599734 17.9348 0.135901 18.1748C0.395101 18.999 0.745937 19.8024 0.884701 20.6579C1.03394 21.5813 1.18317 22.5072 1.31146 23.4332C1.57328 25.332 1.55496 27.2309 1.57066 29.1428C1.60208 32.9614 1.63088 36.78 1.65183 40.596C1.67277 44.4328 1.6911 48.2697 1.69634 52.1065C1.70419 55.9251 1.70157 59.7437 1.68586 63.5597C1.67016 67.0626 1.71205 70.6439 0.544337 73.9982C0.395101 74.4259 0.227537 74.8459 0.039028 75.2606C-0.0787902 75.5188 0.0573552 75.8423 0.374155 75.8423H34.0335C34.188 75.8423 34.3791 75.7223 34.4079 75.558C35.0624 71.5881 35.717 67.6182 36.3715 63.6457C36.3768 63.6118 36.3768 63.5805 36.3768 63.5492C36.3925 63.3849 36.3113 63.218 36.1019 63.171" fill="black"/>
<path d="M233.956 17.6558H224.198C224.038 17.6558 223.931 17.734 223.873 17.841C223.818 17.9192 223.794 18.0235 223.823 18.1435C224.04 19.0173 224.3 19.8833 224.501 20.7623C224.703 21.6517 224.823 22.5594 224.941 23.4619C225.062 24.38 225.161 25.3034 225.195 26.2293C225.232 27.1735 225.213 28.123 225.216 29.0672C225.227 32.8832 225.237 36.6991 225.245 40.5151C225.253 44.3494 225.253 48.1836 225.25 52.0178C225.245 55.8338 225.232 59.6498 225.211 63.4658C225.19 66.9766 225.391 70.6361 224.177 73.993C224.022 74.4181 223.844 74.8329 223.645 75.2372C223.519 75.4954 223.669 75.8188 223.98 75.8188H233.809C234.071 75.8188 234.236 75.5736 234.183 75.331C233.783 73.547 233.309 71.7759 233.063 69.9605C232.809 68.0956 232.872 66.2071 232.864 64.3317C232.845 60.5053 232.824 56.6815 232.809 52.8577C232.775 45.2075 232.754 37.5573 232.775 29.9071C232.785 25.9242 232.756 21.8865 234.33 18.1461C234.429 17.9088 234.183 17.6584 233.956 17.6584" fill="black"/>
<path d="M170.556 67.8999C169.692 64.5926 169.506 61.2044 169.511 57.8005C169.514 54.334 169.553 50.8676 169.556 47.4011C169.558 43.9607 169.561 40.5203 169.556 37.0773C169.556 35.3272 169.535 33.577 169.545 31.8268C169.553 30.3374 169.702 28.8507 170.014 27.3926C170.367 25.7624 170.915 24.174 171.656 22.6768C172.027 21.9256 172.433 21.177 172.918 20.491C173.449 19.7398 174.077 19.0616 174.648 18.3391C174.847 18.0887 174.737 17.6818 174.373 17.6818H163.448C163.084 17.6818 162.976 18.0913 163.173 18.3391C163.756 19.0747 164.393 19.7737 164.945 20.5354C165.464 21.2474 165.903 22.0247 166.299 22.8098C167.071 24.3435 167.626 25.9815 167.967 27.6613C168.325 29.4297 168.38 31.2008 168.378 32.9953C168.378 35.0037 168.375 37.0147 168.375 39.0232C168.375 43.0791 168.375 47.1377 168.372 51.1962C168.372 55.2339 168.372 59.2716 168.372 63.3119C168.372 65.3412 168.372 67.3678 168.372 69.3971C168.372 70.3961 168.404 71.4003 168.359 72.3967C168.328 73.1035 168.247 74.0634 167.686 74.5798C167.252 74.9789 166.702 74.6842 166.33 74.3451C165.689 73.7608 165.118 73.067 164.636 72.3471C164.126 71.5803 163.785 70.756 163.445 69.9031C163.081 68.9876 162.725 68.0695 162.377 67.1461C160.989 63.4423 159.853 59.6654 158.751 55.8677C157.633 52.0204 156.549 48.1601 155.433 44.3128C154.365 40.6273 153.328 36.9156 151.993 33.3135C150.742 29.941 149.197 26.6101 147.063 23.694C146.518 22.9481 145.916 22.2464 145.309 21.5526C144.28 20.3163 143.005 19.2781 141.546 18.5843C140.468 18.0705 139.222 17.6479 138.012 17.6323C138.012 17.6323 138.012 17.6323 138.007 17.6323C135.831 17.4236 133.642 17.6949 131.461 17.5645C131.089 17.541 130.998 17.9844 131.186 18.2218C131.757 18.9391 132.383 19.6146 132.927 20.3502C133.456 21.0674 133.888 21.8604 134.289 22.6559C135.098 24.26 135.697 25.9633 136.04 27.7265C136.41 29.6201 136.373 31.5242 136.378 33.4466C136.383 35.5489 136.389 37.6538 136.391 39.7561C136.399 43.9451 136.402 48.1314 136.391 52.3204C136.386 54.4045 136.378 56.4885 136.365 58.5726C136.352 60.6253 136.449 62.712 136.116 64.7465C135.556 68.1712 134.438 71.6246 132.029 74.2147C131.731 74.5355 131.414 74.8433 131.087 75.138C130.833 75.365 131.037 75.7953 131.362 75.7953H142.505C142.871 75.7953 142.976 75.3858 142.78 75.138C142.078 74.246 141.298 73.4061 140.677 72.4541C140.106 71.5803 139.617 70.6465 139.195 69.6945C138.36 67.806 137.839 65.7689 137.672 63.711C137.577 62.5685 137.606 61.4208 137.606 60.2758C137.606 59.0707 137.606 57.8683 137.606 56.6633C137.606 54.2349 137.603 51.8092 137.601 49.3808C137.601 44.5267 137.601 39.67 137.601 34.8159C137.601 32.3876 137.606 29.9618 137.611 27.5335C137.617 25.3451 137.486 23.0498 138.441 21.0101C138.69 20.478 139.043 19.9302 139.625 19.7216C140.237 19.5025 141.018 19.6329 141.596 19.8963C143.285 20.6658 144.489 22.1734 145.364 23.7645C146.39 25.6372 146.885 27.7343 147.403 29.7897C147.987 32.1007 148.445 34.4299 148.783 36.7904C149.469 41.5767 150.001 46.3812 150.639 51.1727C151.228 55.5912 151.831 60.0567 153.457 64.2378C154.792 67.6704 156.79 71.116 159.819 73.3279C161.233 74.3607 162.879 75.065 164.607 75.3702C166.922 75.7823 169.286 75.7745 171.629 75.7875C172.19 75.7901 172.75 75.7953 173.31 75.8058C173.601 75.811 173.915 75.8579 174.206 75.8292C174.478 75.8032 174.583 75.6101 174.735 75.4119C174.831 75.2841 174.79 75.0467 174.674 74.945C172.559 73.0853 171.273 70.5813 170.559 67.8895" fill="black"/>
<path d="M104.033 15.1935H105.324C105.324 15.1935 110.259 5.13319 116.485 2.33707H111.55L104.033 15.1935Z" fill="black"/>
<path d="M106.788 17.5306H99.9541L110.202 0H127.385L117.449 4.46545C112.974 6.47647 108.701 13.6311 107.432 16.2186L106.788 17.5279V17.5306Z" fill="black"/>
</g>
<defs>
<clipPath id="clip0_162_564">
<rect width="288" height="103.814" fill="white"/>
</clipPath>
</defs>
</svg>
